<svg xmlns="http://www.w3.org/2000/svg" xmlns:xlink="http://www.w3.org/1999/xlink"><symbol viewBox="0 0 512 512" id="ic-checkmark-in-circle-solid" xmlns="http://www.w3.org/2000/svg"><path d="M504 256c0 136.967-111.033 248-248 248S8 392.967 8 256 119.033 8 256 8s248 111.033 248 248zM227.314 387.314l184-184c6.248-6.248 6.248-16.379 0-22.627l-22.627-22.627c-6.248-6.249-16.379-6.249-22.628 0L216 308.118l-70.059-70.059c-6.248-6.248-16.379-6.248-22.628 0l-22.627 22.627c-6.248 6.248-6.248 16.379 0 22.627l104 104c6.249 6.249 16.379 6.249 22.628.001z" fill-rule="evenodd"></path></symbol><symbol viewBox="0 0 8.9 14.9" id="ic-chevron-left" xmlns="http://www.w3.org/2000/svg"><path d="M.1 7.1L7 .2a.5.5 0 01.7 0l1 .9a.6.6 0 010 .8L3.2 7.5l5.5 5.6a.6.6 0 010 .8l-1 .9a.5.5 0 01-.7 0L.1 7.9a.6.6 0 010-.8z" fill-rule="evenodd"></path></symbol><symbol viewBox="0 0 8.9 14.9" id="ic-chevron-right" xmlns="http://www.w3.org/2000/svg"><path d="M8.7 7.9l-6.9 6.9a.5.5 0 01-.7 0l-1-.9a.6.6 0 010-.8l5.5-5.6L.1 1.9a.6.6 0 010-.8l1-.9a.5.5 0 01.7 0l6.9 6.9a.6.6 0 010 .8z" fill-rule="evenodd"></path></symbol><symbol viewBox="0 0 16.2 16.2" id="ic-close" xmlns="http://www.w3.org/2000/svg"><path d="M9.8 8.1l6.2 6.2a.5.5 0 010 .8l-.9.9a.5.5 0 01-.8 0L8.1 9.8 1.9 16a.5.5 0 01-.8 0l-.9-.9a.5.5 0 010-.8l6.2-6.2L.2 1.9a.5.5 0 010-.8l.9-.9a.5.5 0 01.8 0l6.2 6.2L14.3.2a.5.5 0 01.8 0l.9.9a.5.5 0 010 .8z" fill-rule="evenodd"></path></symbol><symbol viewBox="0 0 23.3 23.3" id="ic-confirmation" xmlns="http://www.w3.org/2000/svg"><path d="M11.6 0a11.6 11.6 0 1011.6 11.6A11.6 11.6 0 0011.6 0zm0 2.2a9.4 9.4 0 11-9.4 9.4 9.4 9.4 0 019.4-9.4zm6.5 6.1l-1-1a.5.5 0 00-.8 0l-6.6 6.5L6.9 11a.6.6 0 00-.8 0l-1 1.1c-.3.2-.3.5 0 .8l4.2 4.3a.6.6 0 00.8 0l8-8.1c.3-.2.3-.5 0-.8z" fill-rule="evenodd"></path></symbol><symbol viewBox="0 0 23.3 23.3" id="ic-error" xmlns="http://www.w3.org/2000/svg"><path d="M11.6 0a11.6 11.6 0 1011.6 11.6A11.6 11.6 0 0011.6 0zm0 21a9.4 9.4 0 119.4-9.4 9.4 9.4 0 01-9.4 9.4zm4.8-12.3l-2.9 2.9 2.9 2.9a.6.6 0 010 .8l-1.1 1.1a.6.6 0 01-.8 0l-2.9-2.9-2.9 2.9a.6.6 0 01-.8 0l-1.1-1.1a.6.6 0 010-.8l2.9-2.9-2.9-2.9a.6.6 0 010-.8l1.1-1.1a.6.6 0 01.8 0l2.9 2.9 2.9-2.9a.6.6 0 01.8 0l1.1 1.1a.6.6 0 010 .8z" fill-rule="evenodd"></path></symbol><symbol viewBox="0 0 23.3 23.3" id="ic-info" xmlns="http://www.w3.org/2000/svg"><path d="M11.6 21a9.4 9.4 0 10-9.4-9.4 9.4 9.4 0 009.4 9.4zm8.2-17.6a11.6 11.6 0 010 16.4 11.6 11.6 0 01-16.4 0 11.6 11.6 0 010-16.4 11.6 11.6 0 0116.4 0zm-7.3 6.7a.6.6 0 01.6.6v6.1a.6.6 0 01-.6.6h-1.8a.6.6 0 01-.6-.6v-6.1a.6.6 0 01.6-.6zM11.6 5a1.9 1.9 0 011.9 1.9 1.9 1.9 0 01-3.8 0A1.9 1.9 0 0111.6 5z" fill-rule="evenodd"></path></symbol><symbol viewBox="0 0 23.3 23.3" id="ic-warning" xmlns="http://www.w3.org/2000/svg"><path d="M11.6 0a11.6 11.6 0 1011.6 11.6A11.6 11.6 0 0011.6 0zm0 21a9.4 9.4 0 119.4-9.4 9.4 9.4 0 01-9.4 9.4zm2-4.9a2 2 0 11-2-2 2 2 0 012 2zM9.8 6.2l.3 6.4a.5.5 0 00.5.5h2a.5.5 0 00.5-.5l.3-6.4a.5.5 0 00-.5-.6h-2.6a.5.5 0 00-.5.6z" fill-rule="evenodd"></path></symbol></svg>